<?xml version="1.0" standalone="no"?>
<!DOCTYPE svg PUBLIC "-//W3C//DTD SVG 20010904//EN"
 "http://www.w3.org/TR/2001/REC-SVG-20010904/DTD/svg10.dtd">
<svg version="1.0" xmlns="http://www.w3.org/2000/svg"
 width="2000.000000pt" height="2000.000000pt" viewBox="0 0 2000.000000 2000.000000"
 preserveAspectRatio="xMidYMid meet">
<metadata>
Created by potrace 1.11, written by Peter Selinger 2001-2013
</metadata>
<g transform="translate(0.000000,2000.000000) scale(0.100000,-0.100000)"
fill="#000000" stroke="none">
<path d="M1026 16398 c-45 -69 -71 -192 -81 -388 -3 -69 -26 -944 -50 -1945
-29 -1174 -49 -1834 -56 -1860 -20 -72 -42 -84 -64 -32 -19 48 -23 113 -40
667 -19 620 -37 779 -96 854 -41 52 -75 27 -108 -79 -26 -83 -37 -188 -71
-651 -29 -406 -39 -474 -74 -474 -18 0 -30 38 -50 155 -20 113 -31 152 -56
193 -36 59 -79 35 -110 -65 -25 -80 -35 -159 -70 -528 -35 -365 -37 -382 -57
-413 -11 -19 -17 -21 -29 -11 -12 10 -14 -10 -14 -140 0 -132 2 -152 17 -158
23 -9 59 36 78 99 24 83 33 152 70 535 32 346 43 411 72 420 20 7 33 -32 54
-153 21 -126 51 -209 81 -225 47 -25 94 73 117 241 6 47 25 270 41 495 34 467
43 520 84 486 30 -25 37 -118 56 -675 11 -314 24 -605 30 -646 23 -160 57
-245 100 -245 53 0 92 110 111 314 5 58 30 944 55 1969 25 1063 49 1884 55
1911 13 61 33 91 50 74 39 -38 37 9 88 -3788 28 -2018 54 -3735 60 -3815 35
-508 201 -463 226 63 3 67 21 862 40 1767 19 905 39 1683 44 1729 7 52 17 91
27 102 35 39 50 -1 69 -186 24 -244 59 -350 115 -350 20 0 30 10 47 45 32 63
48 154 72 395 12 116 26 231 32 257 18 80 47 83 70 6 5 -18 23 -220 39 -448
34 -474 35 -488 57 -592 20 -98 49 -152 85 -156 23 -3 30 3 49 39 28 55 56
193 64 316 3 54 21 472 40 928 19 457 39 846 45 866 15 55 35 66 55 35 27 -41
34 -171 66 -1321 30 -1086 36 -1195 73 -1320 16 -53 47 -95 70 -95 29 0 66 66
85 152 25 113 33 305 60 1583 17 754 32 1431 35 1506 6 154 20 214 51 214 31
0 45 -60 51 -214 3 -75 18 -848 35 -1717 16 -870 34 -1619 39 -1665 19 -152
51 -247 92 -273 25 -15 61 23 82 87 43 131 45 192 76 1732 17 820 34 1506 39
1525 14 57 22 70 42 70 12 0 21 -12 29 -37 6 -21 22 -216 35 -433 13 -217 29
-430 35 -474 38 -265 126 -316 179 -104 12 45 33 214 51 400 17 178 33 337 36
353 17 93 49 110 71 37 7 -24 33 -260 58 -525 25 -265 50 -516 56 -557 30
-201 90 -282 142 -192 29 49 43 116 87 398 22 143 45 272 51 287 15 37 39 31
54 -13 6 -19 47 -267 90 -550 43 -283 83 -521 89 -528 15 -16 11294 -18 11310
-2 6 6 47 250 92 542 46 293 87 542 93 555 14 31 36 29 50 -4 6 -16 29 -144
51 -287 44 -282 58 -349 87 -398 52 -90 112 -9 142 192 6 41 31 293 56 560 25
267 51 503 59 525 22 69 53 51 70 -40 3 -16 19 -175 36 -352 31 -327 54 -456
89 -503 40 -54 81 -30 110 65 30 96 40 189 66 615 13 217 29 411 35 432 19 67
51 53 72 -32 4 -19 21 -705 38 -1525 30 -1497 34 -1591 70 -1715 13 -45 46
-99 65 -106 47 -18 91 87 114 274 6 46 24 798 40 1670 33 1759 35 1833 53
1888 18 54 48 54 66 0 17 -53 19 -107 53 -1681 31 -1465 35 -1545 85 -1663 58
-140 123 -72 159 168 10 65 24 423 44 1175 32 1150 39 1280 66 1321 20 31 40
20 55 -35 6 -20 26 -409 45 -866 18 -456 37 -873 40 -925 9 -133 32 -246 62
-308 22 -46 28 -53 51 -50 35 4 65 58 85 156 21 99 22 112 57 597 17 226 34
425 40 443 21 77 51 74 69 -6 6 -26 20 -139 31 -252 24 -241 42 -339 73 -400
36 -70 73 -65 107 15 25 59 39 132 55 294 8 79 21 155 28 170 30 64 62 8 72
-127 3 -42 21 -806 40 -1697 38 -1805 39 -1842 61 -1975 24 -151 75 -237 118
-201 45 38 83 211 92 416 3 71 27 1770 55 3775 51 3771 49 3725 88 3763 17 17
37 -13 50 -74 6 -27 30 -848 55 -1911 25 -1025 50 -1911 55 -1969 19 -197 57
-310 108 -317 27 -4 48 26 73 104 33 107 40 205 60 794 22 624 28 686 69 678
31 -6 42 -83 71 -492 39 -544 58 -664 115 -725 18 -19 26 -21 42 -12 31 16 61
99 82 225 21 121 34 160 54 153 28 -9 40 -74 72 -420 37 -383 46 -452 70 -534
15 -50 48 -103 66 -103 5 0 9 62 9 144 0 111 -3 146 -14 155 -24 20 -35 92
-66 426 -35 375 -44 449 -71 531 -24 74 -52 108 -78 95 -40 -22 -63 -79 -85
-216 -21 -126 -34 -165 -52 -165 -35 0 -45 68 -74 474 -34 463 -45 568 -71
651 -24 77 -44 105 -74 105 -45 0 -85 -112 -104 -290 -6 -52 -18 -327 -26
-610 -16 -513 -25 -632 -50 -666 -19 -26 -41 -4 -54 54 -6 28 -29 797 -55
1862 -25 998 -48 1871 -51 1940 -13 243 -58 405 -115 405 -60 0 -107 -178
-116 -440 -3 -82 -28 -1781 -55 -3775 -27 -1994 -53 -3643 -58 -3665 -9 -47
-28 -85 -42 -85 -18 0 -39 68 -45 142 -3 40 -23 865 -45 1833 -39 1775 -42
1847 -79 1962 -21 65 -50 104 -73 101 -54 -8 -88 -117 -112 -355 -15 -147 -29
-198 -54 -198 -25 0 -39 73 -66 320 -27 260 -45 353 -75 403 -35 58 -64 52
-100 -18 -34 -68 -50 -191 -85 -661 -36 -474 -45 -539 -79 -539 -38 0 -44 73
-81 973 -35 888 -47 1049 -86 1151 -37 99 -72 108 -116 30 -57 -102 -63 -200
-98 -1519 -13 -522 -29 -992 -34 -1043 -15 -141 -53 -180 -82 -83 -6 23 -23
587 -44 1536 -19 825 -39 1541 -44 1590 -18 153 -51 252 -93 279 -24 15 -53
-15 -77 -79 -48 -128 -50 -174 -86 -1991 -22 -1111 -37 -1732 -44 -1755 -30
-99 -68 -58 -82 88 -5 54 -21 724 -35 1488 -13 765 -29 1435 -35 1490 -17 169
-64 305 -104 305 -41 0 -84 -103 -104 -250 -6 -41 -20 -232 -31 -425 -11 -192
-22 -372 -25 -399 -7 -58 -29 -116 -45 -116 -26 0 -41 83 -70 387 -35 365 -49
453 -84 529 -23 50 -28 55 -53 52 -22 -2 -33 -13 -50 -48 -36 -73 -51 -178
-103 -728 -28 -299 -55 -535 -62 -549 -19 -39 -36 -39 -52 -1 -7 18 -30 143
-51 278 -40 268 -56 344 -86 403 -17 32 -24 38 -47 35 -32 -4 -56 -42 -76
-123 -9 -33 -52 -296 -96 -585 -50 -330 -86 -537 -96 -557 l-17 -33 -5577 0
-5577 0 -17 33 c-10 20 -46 227 -96 557 -44 289 -87 552 -96 585 -20 81 -44
119 -76 123 -53 6 -79 -78 -133 -438 -21 -135 -44 -260 -51 -278 -16 -38 -33
-38 -52 1 -7 14 -34 250 -62 549 -52 550 -67 655 -103 728 -17 35 -28 46 -50
48 -25 3 -30 -2 -52 -50 -35 -77 -51 -179 -80 -488 -14 -151 -30 -305 -36
-342 -18 -112 -57 -114 -78 -4 -6 28 -19 218 -31 421 -25 448 -43 576 -91 653
-57 91 -123 -33 -148 -273 -6 -55 -22 -725 -35 -1490 -14 -764 -30 -1434 -35
-1488 -14 -146 -52 -187 -82 -88 -7 23 -22 644 -44 1755 -28 1402 -37 1740
-50 1830 -35 239 -108 311 -164 162 -46 -122 -48 -183 -80 -1666 -33 -1513
-38 -1654 -65 -1695 -23 -34 -31 -32 -50 15 -21 52 -22 72 -57 1316 -16 578
-34 1089 -39 1135 -21 168 -74 289 -117 263 -44 -27 -75 -121 -93 -281 -6 -54
-26 -485 -45 -958 -36 -889 -43 -965 -81 -965 -34 0 -44 65 -79 537 -19 258
-39 495 -46 527 -23 123 -68 206 -104 193 -24 -10 -53 -66 -70 -137 -8 -36
-27 -175 -41 -310 -28 -257 -39 -315 -64 -315 -26 0 -40 49 -55 198 -23 230
-58 346 -107 355 -23 5 -55 -34 -74 -90 -41 -125 -43 -165 -83 -1973 -22 -968
-42 -1793 -45 -1833 -6 -74 -27 -142 -45 -142 -14 0 -33 38 -42 85 -5 22 -31
1671 -58 3665 -27 1994 -52 3693 -55 3775 -6 184 -28 312 -64 385 -31 63 -61
76 -86 38z"/>
<path d="M2413 5732 l-153 -3 0 -789 0 -790 155 0 155 0 0 279 c0 176 4 282
10 286 6 3 10 17 10 31 0 13 5 24 10 24 6 0 10 7 10 16 0 20 63 84 83 84 9 0
19 5 22 10 3 6 28 10 56 10 27 0 49 -4 49 -10 0 -5 8 -10 18 -10 25 -1 57 -29
81 -73 20 -36 21 -52 21 -342 l0 -305 155 0 155 0 0 369 c0 236 -4 372 -10
376 -5 3 -10 15 -10 27 0 60 -74 147 -164 193 -57 29 -64 30 -189 30 -93 -1
-132 -4 -135 -13 -2 -7 -12 -12 -23 -12 -10 0 -19 -4 -19 -9 0 -5 -8 -11 -17
-15 -27 -8 -55 -29 -76 -53 -10 -13 -23 -23 -28 -23 -5 0 -10 150 -11 358 l-3
357 -152 -3z"/>
<path d="M7010 4940 l0 -790 150 0 150 0 0 790 0 790 -150 0 -150 0 0 -790z"/>
<path d="M14440 5385 c0 -376 1 -373 -55 -315 -16 17 -35 30 -42 30 -7 0 -13
5 -13 10 0 6 -9 10 -19 10 -11 0 -21 6 -23 13 -4 9 -44 12 -158 12 -114 0
-154 -3 -157 -12 -3 -7 -12 -13 -21 -13 -9 0 -26 -7 -36 -15 -11 -8 -26 -15
-32 -15 -7 0 -24 -10 -38 -22 -14 -13 -35 -32 -48 -44 -39 -35 -65 -70 -84
-110 -10 -22 -21 -41 -24 -44 -16 -14 -33 -107 -37 -204 -4 -84 -1 -125 13
-180 10 -39 21 -73 24 -76 3 -3 16 -26 30 -52 29 -56 102 -137 148 -164 17
-10 32 -22 32 -26 0 -4 18 -11 40 -14 22 -4 40 -10 40 -14 0 -8 91 -21 145
-22 43 0 128 13 140 22 6 4 25 11 43 15 17 3 32 10 32 14 0 4 16 16 35 27 19
10 35 24 35 31 0 7 7 13 15 13 11 0 15 -12 15 -45 l0 -45 155 0 155 0 0 790 0
790 -155 0 -155 0 0 -345z m-175 -505 c3 -5 17 -10 30 -10 13 0 30 -7 39 -15
8 -8 18 -15 22 -15 6 0 34 -29 64 -67 5 -6 12 -23 16 -37 3 -14 10 -26 15 -26
19 0 10 -125 -12 -170 -24 -50 -77 -110 -96 -110 -7 0 -13 -3 -13 -8 0 -12
-76 -32 -124 -32 -51 0 -121 28 -161 65 -26 23 -65 91 -65 112 0 13 -4 23 -10
23 -5 0 -10 20 -10 44 0 25 5 48 10 51 6 3 10 15 10 26 0 52 106 159 157 159
13 0 23 5 23 10 0 6 22 10 49 10 28 0 53 -4 56 -10z"/>
<path d="M6491 5703 c-18 -7 -62 -53 -78 -81 -7 -12 -13 -51 -13 -87 0 -82 25
-124 93 -160 68 -35 108 -33 177 7 8 5 23 11 33 14 9 4 17 12 17 19 0 8 7 21
16 29 11 12 16 36 16 84 1 73 -10 101 -57 147 -27 28 -35 30 -110 32 -44 1
-86 0 -94 -4z"/>
<path d="M5520 5612 c-30 -9 -57 -18 -60 -21 -3 -3 -21 -15 -40 -25 -19 -11
-52 -36 -72 -57 -40 -40 -98 -136 -98 -161 0 -9 -6 -18 -12 -20 -9 -3 -13 -41
-12 -139 0 -126 1 -137 27 -188 15 -30 44 -70 65 -91 36 -35 122 -82 172 -95
25 -6 43 -13 90 -33 14 -6 36 -14 50 -17 38 -10 80 -29 80 -36 0 -4 12 -9 28
-12 15 -3 44 -22 65 -43 34 -35 37 -41 37 -96 0 -56 -3 -62 -39 -99 -26 -27
-51 -42 -75 -46 -20 -3 -36 -10 -36 -14 0 -12 -97 -12 -104 0 -3 5 -26 12 -51
15 -25 4 -45 11 -45 17 0 5 -7 9 -15 9 -8 0 -15 4 -15 9 0 5 -11 12 -25 15
-14 4 -25 11 -25 16 0 10 -77 70 -90 70 -8 0 -70 -88 -70 -99 0 -5 -4 -11 -8
-13 -5 -1 -28 -29 -52 -61 l-44 -59 30 -26 c48 -44 137 -107 172 -123 17 -7
32 -17 32 -21 0 -3 19 -9 43 -13 23 -4 47 -11 52 -15 8 -6 117 -20 165 -22 50
-1 190 16 190 23 0 5 12 9 26 9 25 0 94 27 104 41 3 3 15 9 28 13 12 4 22 12
22 17 0 5 5 9 11 9 18 0 77 67 96 110 4 8 9 17 12 20 11 10 34 76 38 113 3 20
9 37 14 37 12 0 12 185 0 208 -5 9 -14 36 -20 59 -6 23 -18 49 -26 57 -8 8
-15 17 -15 20 0 13 -54 66 -67 66 -7 0 -13 4 -13 9 0 9 -96 58 -160 81 -19 7
-49 19 -67 26 -17 8 -40 14 -52 14 -12 0 -21 5 -21 10 0 6 -9 10 -19 10 -11 0
-22 4 -26 9 -3 5 -19 12 -35 16 -17 4 -30 11 -30 16 0 5 -5 9 -11 9 -14 0 -39
25 -39 39 0 6 -4 11 -10 11 -5 0 -10 20 -10 44 0 37 6 50 35 80 19 20 41 36
50 36 8 0 15 5 15 10 0 13 157 13 165 1 3 -5 19 -12 35 -16 17 -4 30 -10 30
-15 0 -4 8 -10 18 -14 21 -7 55 -28 64 -40 8 -12 28 10 52 57 11 20 22 37 26
37 5 0 11 11 14 25 4 14 11 25 16 25 6 0 10 6 10 13 0 7 11 28 24 47 l23 34
-41 26 c-54 35 -106 60 -122 60 -7 0 -14 3 -16 8 -1 4 -33 15 -70 25 -86 22
-288 22 -368 -1z"/>
<path d="M1157 5593 c-4 -3 -7 -66 -7 -140 l0 -133 160 0 160 0 0 -585 0 -585
165 0 165 0 0 585 0 585 155 0 155 0 0 140 0 140 -473 0 c-261 0 -477 -3 -480
-7z"/>
<path d="M11209 5596 c-2 -2 -3 -329 -1 -725 l2 -721 163 2 162 3 3 251 2 251
178 5 c180 5 187 7 289 55 60 29 133 99 159 154 11 21 22 39 26 39 4 0 10 23
14 50 4 28 11 53 15 56 5 3 9 54 9 114 0 60 -4 111 -9 114 -4 3 -11 28 -15 56
-4 27 -10 50 -14 50 -4 0 -13 15 -21 33 -19 45 -119 139 -178 167 -26 13 -68
28 -93 33 -44 10 -682 22 -691 13z m569 -285 c2 -6 9 -11 15 -11 16 -1 57 -36
57 -48 0 -6 6 -12 13 -14 8 -3 12 -33 12 -104 l0 -99 -34 -33 c-55 -54 -79
-62 -196 -62 l-105 0 0 196 0 197 117 -6 c70 -3 119 -10 121 -16z"/>
<path d="M10018 5289 c3 -98 0 -144 -8 -155 -8 -9 -31 -14 -61 -14 l-49 0 0
-125 0 -125 54 0 c41 0 55 -4 60 -16 4 -10 6 -166 6 -348 0 -182 0 -337 0
-343 0 -10 37 -13 150 -13 l150 0 0 360 0 360 95 0 95 0 0 125 0 124 -92 3
-93 3 -3 153 -3 152 -152 0 -152 0 3 -141z"/>
<path d="M18210 5291 c0 -77 -3 -146 -6 -155 -4 -12 -20 -16 -55 -16 l-49 0 0
-125 0 -125 55 0 55 0 0 -360 0 -360 155 0 155 0 0 360 0 359 93 3 92 3 3 123
3 122 -96 0 -95 0 0 155 0 155 -155 0 -155 0 0 -139z"/>
<path d="M3830 5144 c-14 -3 -34 -9 -45 -14 -11 -4 -39 -16 -62 -26 -24 -10
-43 -21 -43 -26 0 -4 -5 -8 -10 -8 -35 0 -170 -162 -170 -204 0 -8 -4 -17 -8
-20 -5 -3 -17 -40 -27 -82 -20 -85 -17 -244 5 -299 25 -61 64 -135 72 -135 4
0 8 -6 8 -13 0 -18 82 -103 108 -111 12 -4 22 -12 22 -17 0 -5 7 -9 15 -9 8 0
15 -4 15 -9 0 -5 19 -12 43 -16 23 -4 47 -11 52 -15 9 -6 135 -23 175 -22 47
0 176 16 185 22 6 4 29 11 53 15 23 4 42 11 42 16 0 5 7 9 15 9 8 0 15 4 15 9
0 5 10 13 22 17 22 6 98 81 98 95 0 4 6 14 13 21 16 17 47 85 47 103 0 12 -16
15 -79 15 -44 0 -83 5 -86 10 -3 6 -31 10 -62 10 -51 0 -58 -3 -94 -40 -22
-22 -46 -40 -54 -40 -8 0 -15 -4 -15 -10 0 -6 -37 -10 -90 -10 -53 0 -90 4
-90 10 0 6 -8 10 -18 10 -24 0 -90 74 -98 108 -3 15 -10 39 -14 54 -7 23 -5
30 11 38 12 7 141 10 362 10 l342 -1 -1 78 c-2 112 -29 207 -87 297 -19 31
-88 95 -108 101 -11 4 -19 10 -19 15 0 5 -13 11 -30 15 -16 4 -30 11 -30 16 0
5 -11 9 -24 9 -13 0 -26 5 -28 11 -4 12 -277 23 -328 13z m257 -231 c26 -14
52 -31 58 -37 26 -26 45 -62 45 -83 l0 -23 -205 0 c-136 0 -205 4 -205 10 0
40 93 140 130 140 11 0 20 5 20 10 0 6 25 10 55 10 40 0 67 -7 102 -27z"/>
<path d="M7898 5143 c-21 -2 -38 -8 -38 -14 0 -5 -6 -9 -14 -9 -51 0 -214
-128 -231 -180 -4 -11 -10 -20 -15 -20 -5 0 -11 -13 -15 -30 -4 -16 -11 -32
-16 -35 -5 -4 -9 -16 -9 -29 0 -12 -6 -28 -12 -34 -17 -17 -18 -288 -2 -323 7
-13 20 -44 30 -69 10 -25 24 -51 31 -58 7 -7 13 -17 13 -22 0 -15 95 -108 118
-115 12 -3 22 -11 22 -16 0 -5 7 -9 15 -9 8 0 15 -4 15 -10 0 -5 17 -12 38
-15 20 -4 46 -10 57 -15 20 -8 132 -23 170 -22 66 1 186 16 191 23 3 5 14 9
26 9 26 0 91 30 101 47 4 7 14 13 22 13 36 0 171 198 149 219 -5 5 -43 12 -84
15 -41 3 -104 8 -140 12 -63 5 -65 5 -82 -23 -29 -50 -88 -73 -184 -73 -49 0
-84 4 -84 10 0 6 -6 10 -13 10 -21 0 -83 72 -101 118 -22 58 -21 80 7 87 12 3
174 5 359 3 367 -3 348 -6 348 54 0 38 -19 156 -30 183 -25 66 -46 112 -55
122 -5 7 -23 30 -40 52 -16 21 -45 47 -62 56 -18 10 -33 22 -33 26 0 4 -13 10
-30 14 -16 4 -30 11 -30 16 0 5 -11 9 -24 9 -13 0 -26 5 -28 11 -4 12 -265 21
-340 12z m232 -213 c0 -5 7 -10 15 -10 33 0 105 -60 105 -87 0 -7 5 -13 10
-13 6 0 10 -11 10 -25 l0 -25 -205 0 c-193 0 -205 1 -205 19 0 37 78 118 123
128 15 3 27 9 27 14 0 5 27 9 60 9 33 0 60 -4 60 -10z"/>
<path d="M9300 5144 c-19 -3 -44 -9 -55 -13 -11 -5 -27 -12 -35 -15 -32 -14
-60 -33 -92 -65 l-33 -32 -3 50 -3 51 -160 0 -159 0 0 -485 0 -485 159 0 160
0 3 303 c3 328 2 322 63 379 68 64 132 74 214 32 38 -20 51 -33 56 -55 4 -16
11 -31 16 -34 5 -4 9 -137 9 -316 l0 -309 156 0 155 0 -3 388 -3 387 -28 50
c-62 110 -152 162 -290 168 -51 3 -108 3 -127 1z"/>
<path d="M12775 5143 c-16 -2 -34 -9 -39 -14 -6 -5 -20 -9 -33 -9 -13 0 -23
-4 -23 -9 0 -5 -16 -12 -35 -15 -19 -4 -35 -11 -35 -16 0 -6 -5 -10 -11 -10
-6 0 -16 -6 -24 -12 -7 -7 -25 -22 -41 -33 -15 -11 -31 -24 -36 -30 -4 -5 -22
-26 -38 -45 -16 -19 -30 -41 -30 -47 0 -7 -3 -13 -8 -13 -10 0 -33 -66 -39
-112 -3 -21 -9 -38 -14 -38 -12 0 -12 -197 0 -204 5 -3 11 -20 14 -38 12 -76
59 -161 123 -223 46 -45 71 -63 97 -71 9 -4 17 -10 17 -15 0 -5 9 -9 20 -9 11
0 20 -4 20 -9 0 -5 19 -11 42 -15 23 -4 47 -11 53 -15 12 -10 122 -24 180 -23
59 0 159 13 170 22 6 4 29 11 53 15 23 4 42 11 42 16 0 5 9 9 20 9 11 0 20 5
20 10 0 6 6 10 13 10 22 0 147 110 147 130 0 5 3 10 8 10 13 0 61 112 76 180
9 36 16 88 16 115 0 48 -28 195 -40 205 -3 3 -14 25 -25 49 -19 44 -126 161
-146 161 -7 0 -19 8 -28 19 -9 10 -27 21 -41 25 -29 8 -66 24 -95 39 -20 11
-295 19 -350 10z m225 -262 c0 -5 12 -11 28 -14 29 -6 98 -66 121 -107 13 -22
31 -97 31 -125 0 -59 -32 -136 -75 -181 -24 -24 -110 -65 -150 -71 -67 -9
-146 21 -200 75 -25 24 -45 50 -45 57 0 8 -6 15 -12 18 -9 2 -13 32 -13 102 0
70 4 100 13 103 6 2 12 10 12 17 0 24 100 115 126 115 13 0 24 5 24 10 0 6 30
10 70 10 39 0 70 -4 70 -9z"/>
<path d="M15355 5144 c-16 -3 -39 -9 -50 -14 -11 -4 -39 -16 -62 -26 -24 -10
-43 -21 -43 -26 0 -4 -5 -8 -10 -8 -32 0 -145 -125 -166 -182 -3 -10 -10 -18
-15 -18 -5 0 -12 -18 -15 -40 -4 -22 -10 -40 -15 -40 -5 0 -9 -29 -9 -64 0
-36 -4 -68 -10 -71 -5 -3 -10 -17 -10 -30 0 -13 5 -27 10 -30 6 -3 10 -28 10
-55 0 -27 5 -52 10 -55 6 -3 10 -15 10 -25 0 -40 83 -170 134 -210 63 -49 136
-91 169 -97 20 -3 37 -9 37 -14 0 -5 17 -9 38 -9 20 0 51 -4 68 -9 32 -9 171
4 209 20 11 4 35 11 53 14 l32 7 0 144 0 145 -37 -20 c-48 -25 -127 -51 -157
-51 -28 0 -126 30 -144 45 -30 23 -68 69 -89 106 -18 30 -23 55 -23 109 0 38
5 72 10 75 6 3 10 15 10 26 0 10 5 19 10 19 6 0 10 7 10 15 0 20 39 53 101 88
40 21 63 27 114 27 35 0 67 -4 70 -10 3 -5 15 -10 25 -10 21 0 80 -31 80 -42
0 -5 5 -8 10 -8 7 0 10 49 8 141 -2 114 -6 143 -18 149 -8 4 -26 13 -40 20
-25 13 -251 23 -315 14z"/>
<path d="M16253 5143 c-18 -2 -33 -8 -33 -14 0 -5 -7 -9 -14 -9 -30 0 -108
-50 -159 -102 -53 -54 -117 -166 -117 -205 0 -12 -5 -23 -11 -25 -15 -5 -15
-286 0 -301 6 -6 11 -19 11 -29 0 -23 32 -98 42 -98 5 0 8 -7 8 -14 0 -22 148
-166 170 -166 5 0 10 -4 10 -10 0 -5 17 -12 38 -16 20 -4 42 -10 47 -14 9 -7
128 -22 165 -22 37 1 108 15 137 28 17 8 34 14 37 14 4 0 25 18 47 40 22 22
45 40 50 40 5 0 9 -20 9 -45 l0 -45 155 0 155 0 0 485 0 485 -155 0 -155 0 0
-40 c0 -46 -11 -50 -42 -15 -12 14 -27 25 -34 25 -6 0 -17 7 -24 15 -7 8 -21
15 -30 15 -10 0 -20 5 -22 12 -4 12 -218 21 -285 11z m262 -263 c3 -5 15 -10
26 -10 55 0 159 -106 159 -162 0 -15 5 -30 11 -34 11 -7 8 -39 -10 -113 -14
-52 -97 -139 -152 -158 -118 -42 -249 16 -304 135 -35 74 -31 176 10 230 30
40 64 70 100 86 22 11 47 23 55 27 22 11 98 11 105 -1z"/>
<path d="M17510 5141 c-53 -12 -80 -22 -80 -32 0 -5 -7 -9 -15 -9 -21 0 -115
-94 -115 -115 0 -8 -4 -15 -9 -15 -9 0 -19 -37 -28 -109 -6 -49 13 -151 28
-151 5 0 9 -7 9 -15 0 -37 129 -120 206 -132 19 -3 34 -9 34 -13 0 -5 23 -11
50 -15 28 -4 50 -11 50 -16 0 -5 7 -9 15 -9 34 0 48 -86 18 -112 -26 -21 -70
-38 -100 -38 -46 0 -152 40 -181 67 -7 7 -20 13 -28 13 -8 0 -14 5 -14 10 0
22 -40 9 -46 -15 -3 -14 -10 -25 -14 -25 -4 0 -10 -8 -14 -17 -6 -19 -27 -54
-37 -63 -3 -3 -14 -19 -24 -37 -18 -31 -18 -33 -1 -52 10 -11 32 -27 49 -36
18 -8 48 -24 67 -35 19 -11 47 -20 62 -20 15 0 29 -4 32 -9 4 -6 129 -23 171
-22 43 1 152 15 160 21 6 4 25 10 43 13 30 6 47 18 105 73 44 41 87 113 87
144 0 10 5 22 10 25 6 3 10 42 10 86 0 46 -4 79 -10 79 -5 0 -10 11 -10 25 0
14 -4 25 -10 25 -5 0 -10 7 -10 15 0 29 -124 115 -166 115 -8 0 -14 4 -14 9 0
5 -22 12 -50 16 -27 4 -52 11 -56 16 -3 5 -16 9 -30 9 -13 0 -24 5 -24 10 0 6
-6 10 -13 10 -22 0 -59 37 -55 56 7 35 52 56 121 56 60 0 132 -22 147 -43 8
-12 23 2 44 41 11 19 22 37 25 40 10 9 31 44 37 63 4 9 10 17 15 17 5 0 9 11
9 25 0 20 -6 25 -35 31 -19 3 -35 10 -35 15 0 5 -11 9 -24 9 -13 0 -26 5 -28
12 -5 14 -271 21 -328 9z"/>
<path d="M6420 4635 l0 -485 155 0 155 0 0 485 0 485 -155 0 -155 0 0 -485z"/>
</g>
</svg>
