<?xml version="1.0" standalone="no"?>
<!DOCTYPE svg PUBLIC "-//W3C//DTD SVG 20010904//EN"
 "http://www.w3.org/TR/2001/REC-SVG-20010904/DTD/svg10.dtd">
<svg version="1.0" xmlns="http://www.w3.org/2000/svg"
 width="2000.000000pt" height="2000.000000pt" viewBox="0 0 2000.000000 2000.000000"
 preserveAspectRatio="xMidYMid meet">
<metadata>
Created by potrace 1.11, written by Peter Selinger 2001-2013
</metadata>
<g transform="translate(0.000000,2000.000000) scale(0.100000,-0.100000)"
fill="#000000" stroke="none">
<path d="M2516 15778 c-3 -46 -62 -1505 -131 -3243 -69 -1738 -126 -3167 -128
-3175 -1 -8 -51 190 -111 440 -103 430 -124 510 -125 484 -2 -23 -250 -1326
-254 -1330 -2 -2 -50 371 -107 829 -57 457 -106 835 -109 839 -3 4 -49 4 -101
1 l-96 -6 -83 -1396 c-45 -768 -84 -1400 -85 -1406 -5 -18 -14 209 -111 2625
-53 1323 -99 2415 -101 2426 -3 19 -13 22 -95 29 -50 3 -95 3 -99 -2 -5 -4
-57 -783 -117 -1730 -59 -947 -109 -1720 -111 -1718 -3 3 -222 1896 -223 1930
0 20 0 20 -9 0 -5 -11 -79 -325 -165 -697 l-155 -677 1 -438 1 -438 126 548
c106 458 128 541 134 510 4 -21 55 -456 113 -968 59 -511 109 -933 113 -936 4
-3 48 -3 99 -1 l92 4 5 51 c3 29 40 603 81 1277 42 674 79 1243 83 1265 4 22
53 -1084 111 -2525 57 -1411 104 -2566 105 -2566 1 -1 45 -4 98 -8 l97 -7 5
33 c3 18 53 843 111 1833 58 990 109 1813 113 1829 4 18 49 -307 121 -889 63
-504 118 -909 121 -898 4 10 76 386 161 835 84 450 156 814 160 810 4 -4 82
-325 175 -714 93 -389 170 -704 171 -700 2 5 184 4482 195 4792 1 31 2 36 5
15 2 -21 213 -8478 213 -8557 0 -4 45 -8 100 -8 55 0 100 2 100 5 0 3 52 1304
115 2893 63 1588 115 2905 115 2926 0 22 2 37 4 35 2 -2 43 -384 90 -849 48
-465 90 -858 94 -873 6 -25 31 21 197 370 l191 398 6204 2 6205 3 189 -396
c105 -217 193 -397 196 -399 3 -2 46 389 95 870 50 480 91 872 93 871 2 -3
232 -5742 232 -5813 l0 -43 99 0 99 0 6 93 c6 96 207 8297 206 8426 0 41 2 72
5 69 4 -4 195 -4688 195 -4795 0 -25 2 -44 4 -42 3 3 82 326 176 719 94 393
173 716 176 719 2 2 4 -1 4 -7 0 -7 70 -381 155 -832 85 -451 155 -825 155
-832 0 -69 28 137 125 917 63 504 115 919 117 920 2 2 52 -812 111 -1808 60
-997 111 -1838 114 -1870 l6 -58 96 7 c53 4 97 7 98 8 1 1 47 1122 102 2491
56 1370 104 2526 109 2570 5 64 23 -175 86 -1175 43 -690 81 -1285 83 -1321
l6 -67 96 -4 c53 -3 97 -4 99 -3 3 2 221 1896 223 1930 l0 20 8 -20 c4 -11 52
-215 107 -453 l99 -433 3 433 2 433 -137 597 c-75 329 -140 594 -144 590 -3
-4 -55 -435 -115 -959 -59 -524 -110 -950 -113 -947 -3 2 -53 774 -112 1715
-60 942 -110 1714 -113 1716 -3 3 -47 2 -99 -2 l-95 -7 -6 -92 c-3 -50 -49
-1162 -101 -2471 -53 -1309 -98 -2405 -102 -2435 -4 -35 -37 441 -89 1305 -46
748 -83 1374 -83 1391 l-1 31 -97 6 c-53 4 -99 5 -101 2 -4 -3 -211 -1641
-212 -1669 0 -34 -21 70 -129 644 -67 355 -125 655 -129 668 -5 16 -40 -113
-116 -435 -60 -252 -112 -461 -115 -465 -4 -4 -65 1454 -136 3240 l-130 3247
-103 3 -102 3 0 -63 c-1 -168 -208 -8419 -211 -8423 -3 -2 -41 909 -85 2026
-44 1116 -84 2032 -88 2036 -4 4 -49 9 -101 11 -76 4 -95 2 -95 -9 0 -26 -251
-2453 -254 -2456 -1 -2 -33 60 -69 137 l-66 140 -6329 0 -6329 0 -69 -142
c-40 -84 -70 -135 -71 -123 -2 11 -57 549 -123 1195 -66 646 -122 1195 -126
1219 l-6 43 -93 -4 c-52 -2 -97 -6 -100 -9 -4 -4 -158 -3777 -166 -4064 -1
-27 -3 -41 -5 -30 -2 11 -49 1863 -104 4115 -55 2252 -102 4164 -106 4248 l-6
152 -98 0 -98 0 -6 -82z"/>
</g>
</svg>
